<svg width="100" height="117" viewBox="0 0 100 117" fill="none" xmlns="http://www.w3.org/2000/svg">
<path fill-rule="evenodd" clip-rule="evenodd" d="M92.6917 82.0033C87.4115 90.232 60.9144 89.4822 49.9492 89.4822C38.9854 89.4822 14.8211 89.4822 7.20677 82.0033C0.507717 75.3406 0 52.0112 0 44.7411C0 37.4697 0.507717 14.1402 7.20677 7.57447C14.8211 0 38.9854 0 49.9492 0C60.9144 0 85.0774 0 92.6917 7.57447C99.3921 14.1402 100 37.4683 100 44.7411C100 52.0112 99.3921 75.3406 92.6917 82.0033ZM87.4115 12.827C82.8421 8.28154 64.3655 7.47482 49.9492 7.47482C35.533 7.47482 17.055 8.28154 12.5885 12.827C9.03453 16.3611 7.41122 32.7221 7.41122 44.7411C7.41122 56.7587 9.0359 73.1211 12.5885 76.6551C17.055 81.1979 35.533 82.107 49.9492 82.107C64.3655 82.107 82.8421 81.1979 87.4115 76.6551C90.9655 73.1197 92.4872 56.7587 92.4872 44.7411C92.4886 32.7221 90.9655 16.3611 87.4115 12.827ZM79.6956 54.4354H20.2028L16.5473 25.7537L34.7206 38.2764L49.9492 23.0278L65.2794 38.2777L83.4527 25.7551L79.6956 54.4354ZM78.2754 65.6463H21.7259L20.8121 59.385H79.0878L78.2754 65.6463ZM64.6715 45.7512L49.9492 31.2083L35.2297 45.7512L24.0614 37.8737L25.3801 48.2765H74.5183L75.9386 37.8737L64.6715 45.7512Z" fill="#7D6F5D"/>
<path d="M28.8533 110.263C28.8533 110.757 28.9219 111.195 29.0591 111.576C29.2087 111.944 29.402 112.254 29.639 112.508C29.8884 112.749 30.169 112.932 30.4807 113.059C30.7925 113.186 31.1167 113.25 31.4534 113.25C31.8899 113.25 32.264 113.215 32.5757 113.144C32.9 113.073 33.1868 112.975 33.4362 112.847C33.5734 112.777 33.723 112.692 33.8851 112.593C34.0597 112.494 34.2343 112.431 34.4089 112.403C34.7456 112.332 35.0511 112.36 35.3254 112.487C35.5998 112.614 35.8305 112.855 36.0176 113.208C36.2545 113.645 36.3106 114.083 36.1859 114.521C36.0737 114.959 35.8554 115.326 35.5312 115.623C35.0075 116.103 34.3777 116.449 33.6419 116.661C32.9062 116.887 32.1767 117 31.4534 117C30.6428 117 29.851 116.88 29.0778 116.64C28.3046 116.4 27.6125 116.018 27.0015 115.496C26.4029 114.959 25.9166 114.281 25.5425 113.462C25.1808 112.629 25 111.626 25 110.453V106.047C25 104.874 25.1808 103.879 25.5425 103.059C25.9166 102.226 26.4029 101.548 27.0015 101.025C27.6125 100.489 28.3046 100.1 29.0778 99.8602C29.851 99.6201 30.6428 99.5 31.4534 99.5C32.2889 99.5 33.0184 99.5989 33.6419 99.7966C34.2779 99.9944 34.7768 100.242 35.1384 100.538C35.525 100.849 35.7931 101.237 35.9427 101.703C36.0924 102.155 36.055 102.607 35.8305 103.059C35.6434 103.427 35.394 103.688 35.0823 103.843C34.7705 103.999 34.4525 104.041 34.1283 103.97C33.9163 103.928 33.723 103.864 33.5484 103.78C33.3863 103.681 33.2367 103.596 33.0995 103.525C32.875 103.427 32.6381 103.356 32.3887 103.314C32.1517 103.271 31.84 103.25 31.4534 103.25C31.1167 103.25 30.7925 103.314 30.4807 103.441C30.169 103.568 29.8884 103.758 29.639 104.013C29.402 104.253 29.2087 104.564 29.0591 104.945C28.9219 105.312 28.8533 105.743 28.8533 106.237V110.263Z" fill="#7D6F5D"/>
<path d="M41.5529 101.258C41.74 100.665 42.058 100.227 42.5069 99.9449C42.9683 99.6483 43.4547 99.5 43.9659 99.5C44.4398 99.5 44.895 99.6483 45.3314 99.9449C45.7804 100.242 46.0921 100.679 46.2667 101.258L51.1489 116.64H47.0336L46.3041 114.013H41.4968L40.786 116.64H36.7456L41.5529 101.258ZM42.4695 110.432H45.3314L43.9098 105.157L42.4695 110.432Z" fill="#7D6F5D"/>
<path d="M52.1502 116.64V102.932C52.1502 102.325 52.1938 101.809 52.2811 101.386C52.3809 100.962 52.543 100.616 52.7675 100.347C52.9919 100.079 53.2912 99.8884 53.6653 99.7754C54.0394 99.6483 54.5071 99.5847 55.0682 99.5847H61.2972C61.5715 99.5847 61.8022 99.6412 61.9893 99.7542C62.1763 99.8672 62.3322 100.016 62.4569 100.199C62.5816 100.383 62.6689 100.588 62.7188 100.814C62.7812 101.04 62.8123 101.258 62.8123 101.47C62.8123 101.682 62.7812 101.901 62.7188 102.127C62.6689 102.339 62.5816 102.537 62.4569 102.72C62.3447 102.89 62.1888 103.031 61.9893 103.144C61.8022 103.243 61.5715 103.292 61.2972 103.292H56.546C56.334 103.292 56.1906 103.335 56.1158 103.419C56.0409 103.49 56.0035 103.653 56.0035 103.907V106.576H60.8108C61.0852 106.576 61.3159 106.633 61.5029 106.746C61.69 106.859 61.8459 107.007 61.9706 107.191C62.0953 107.374 62.1826 107.579 62.2325 107.805C62.2948 108.031 62.326 108.25 62.326 108.462C62.326 108.674 62.2948 108.893 62.2325 109.119C62.1826 109.331 62.0953 109.528 61.9706 109.712C61.8583 109.881 61.7025 110.023 61.5029 110.136C61.3159 110.234 61.0852 110.284 60.8108 110.284H56.0035V116.64H52.1502Z" fill="#7D6F5D"/>
<path d="M68.0228 106.174H73.1294C73.4038 106.174 73.6345 106.23 73.8216 106.343C74.0086 106.456 74.1645 106.605 74.2892 106.788C74.4139 106.972 74.5012 107.177 74.5511 107.403C74.6134 107.614 74.6446 107.826 74.6446 108.038C74.6446 108.25 74.6134 108.462 74.5511 108.674C74.5012 108.886 74.4139 109.083 74.2892 109.267C74.177 109.436 74.0211 109.578 73.8216 109.691C73.6345 109.79 73.4038 109.839 73.1294 109.839H68.0228V112.318C68.0228 112.572 68.0603 112.742 68.1351 112.826C68.2099 112.897 68.3533 112.932 68.5653 112.932H73.4849C73.7592 112.932 73.9899 112.989 74.177 113.102C74.3765 113.201 74.5324 113.342 74.6446 113.525C74.7693 113.695 74.8566 113.893 74.9065 114.119C74.9688 114.331 75 114.542 75 114.754C75 114.966 74.9688 115.185 74.9065 115.411C74.8566 115.637 74.7693 115.842 74.6446 116.025C74.5199 116.209 74.364 116.357 74.177 116.47C73.9899 116.583 73.7592 116.64 73.4849 116.64H67.1063C66.5451 116.64 66.0775 116.583 65.7034 116.47C65.3292 116.343 65.03 116.145 64.8055 115.877C64.581 115.609 64.4189 115.263 64.3191 114.839C64.2319 114.415 64.1882 113.9 64.1882 113.292V102.932C64.1882 102.325 64.2319 101.809 64.3191 101.386C64.4189 100.962 64.581 100.616 64.8055 100.347C65.03 100.079 65.3292 99.8884 65.7034 99.7754C66.0775 99.6483 66.5451 99.5847 67.1063 99.5847H73.2978C73.5721 99.5847 73.8028 99.6412 73.9899 99.7542C74.177 99.8672 74.3328 100.016 74.4575 100.199C74.5822 100.383 74.6695 100.588 74.7194 100.814C74.7818 101.04 74.8129 101.258 74.8129 101.47C74.8129 101.682 74.7818 101.901 74.7194 102.127C74.6695 102.339 74.5822 102.537 74.4575 102.72C74.3453 102.89 74.1894 103.031 73.9899 103.144C73.8028 103.243 73.5721 103.292 73.2978 103.292H68.5653C68.3533 103.292 68.2099 103.335 68.1351 103.419C68.0603 103.49 68.0228 103.653 68.0228 103.907V106.174Z" fill="#7D6F5D"/>
</svg>
